# xmcd CD database file
#
# Track frame offsets:
#	150
#	2315
#	17632
#	39370
#	58005
#	70431
#	89525
#	119081
#	136297
#	151930
#	166922
#	179697
#	189272
#	191254
#	200501
#	219176
#
# Disc length: 3042 seconds
#
# Revision: 3
# Processed by: cddbd v1.5.2PL0 Copyright (c) Steve Scherf et al.
# Submitted via: CDex 1.70beta2
#
DISCID=d40be010
DTITLE=三浦あずさ 秋月律子 - ファミソン8BIT☆アイドルマスター 03
DYEAR=2008
DGENRE=Game
TTITLE0=765ワールド☆オープニング(ver.03) ～『まっすぐ』より～
TTITLE1=765ワールドへようこそ(ver.03) (ドラマ) ～『まっすぐ』より～
TTITLE2=まっすぐ (『フェリオス』ファミソン8BIT MIX)
TTITLE3=アトラクション『バベルの塔』 [ドラマ]
TTITLE4=Tower of Adventure (『バベルの塔』NEW SONG)
TTITLE5=魔法をかけて！ (『妖怪道中記』ファミソン8BIT MIX)
TTITLE6=アトラクション『源平討魔伝』 [ドラマ]
TTITLE7=禁恋歌 (『源平討魔伝』NEW SONG)
TTITLE8=9:02pm (『ドラゴンバスター』ファミソン8BIT MIX)
TTITLE9=秘密兵器 [ドラマ]
TTITLE10=ポジティブ！ (『スカイキッド』MIX)
TTITLE11=またのご来園を！(ver.03) [ドラマ]
TTITLE12=765ワールド☆フィナーレ(ver.03) ～『まっすぐ』『ドラゴンバスター』より～
TTITLE13=まっすぐ (オリジナル8BIT Instrumental)
TTITLE14=魔法をかけて！ (オリジナル8BIT Instrumental)
TTITLE15=9:02pm (オリジナル8BIT Instrumental)
EXTD=YEAR: 2008
EXTT0=
EXTT1=
EXTT2=
EXTT3=
EXTT4=
EXTT5=
EXTT6=
EXTT7=
EXTT8=
EXTT9=
EXTT10=
EXTT11=
EXTT12=
EXTT13=
EXTT14=
EXTT15=
PLAYORDER=
